<?xml version="1.0" encoding="UTF-8"?>
<svg id="b" data-name="Réteg 2" xmlns="http://www.w3.org/2000/svg" width="742.25102mm" height="323.87859mm" viewBox="0 0 2104.01868 918.08105">
  <g id="c" data-name="Layer 1">
    <polygon points="872.51855 798.12207 872.51855 858.08105 60 858.08105 60 60 872.51855 60 872.51855 442.76807 932.51855 442.76807 932.51855 0 0 0 0 918.08105 932.51855 918.08105 932.51855 798.12207 872.51855 798.12207" style="fill: #1a1a1a;"/>
    <g>
      <path d="m404.77931,735.9731h-57.09602l-95.49667-144.58104v144.58104h-57.10054v-234.40299h57.10054l95.49667,145.24906v-145.24906h57.09602v234.40299Z" style="fill: #1a1a1a;"/>
      <path d="m503.28319,547.3144v47.41546h76.46165v44.07539h-76.46165v51.42355h86.47961v45.74429h-143.58015v-234.40299h143.58015v45.74429h-86.47961Z" style="fill: #1a1a1a;"/>
      <path d="m795.44794,501.57011v45.74429h-62.10952v188.65869h-57.09602v-188.65869h-62.10952v-45.74429h181.31506Z" style="fill: #1a1a1a;"/>
      <path d="m992.7863,501.57011v45.74429h-62.10952v188.65869h-57.09602v-188.65869h-62.10952v-45.74429h181.31506Z" style="fill: #1a1a1a;"/>
      <path d="m1174.0923,501.57011v45.74429h-95.49667v49.41951h71.45267v44.40826h-71.45267v94.83092h-57.10054v-234.40299h152.59722Z" style="fill: #1a1a1a;"/>
      <path d="m1323.68232,735.9731l-48.75376-88.48592h-13.68638v88.48592h-57.10054v-234.40299h95.83181c18.47344,0,34.225,3.22912,47.25016,9.68282,13.02063,6.45823,22.75779,15.30773,29.21602,26.54623,6.4537,11.24303,9.68282,23.76547,9.68282,37.56507,0,15.58399-4.39758,29.49681-13.1882,41.73847-8.79968,12.24392-21.76143,20.92585-38.90337,26.04352l54.09335,92.82688h-64.44191Zm-62.44013-128.88836h35.39346c10.46179,0,18.30587-2.55657,23.54129-7.68104,5.22637-5.11767,7.84408-12.35261,7.84408-21.70255,0-8.90158-2.61771-15.91234-7.84408-21.0368-5.23542-5.11767-13.0795-7.67877-23.54129-7.67877h-35.39346v58.09917Z" style="fill: #1a1a1a;"/>
      <path d="m1472.09935,722.9502c-18.36475-10.23534-32.94785-24.54218-43.74025-42.90693-10.80146-18.36475-16.1954-39.0098-16.1954-61.93969,0-22.92536,5.39394-43.51833,16.1954-61.77212,10.7924-18.25152,25.3755-32.49948,43.74025-42.74162,18.36475-10.23534,38.56823-15.35981,60.60592-15.35981s42.23665,5.12447,60.60139,15.35981c18.36927,10.24214,32.83462,24.4901,43.40964,42.74162,10.57048,18.25379,15.86026,38.84676,15.86026,61.77212,0,22.92989-5.33959,43.57494-16.02783,61.93969-10.68371,18.36475-25.15812,32.67158-43.40511,42.90693-18.25605,10.24214-38.40066,15.35981-60.43835,15.35981s-42.24118-5.11767-60.60592-15.35981Zm105.51463-55.42711c11.24076-12.46583,16.86567-28.93523,16.86567-49.41951,0-20.70166-5.62491-37.22994-16.86567-49.58481s-26.20882-18.53231-44.90871-18.53231c-18.9218,0-34.00761,6.12536-45.24385,18.36475-11.24529,12.24618-16.86567,28.83106-16.86567,49.75238,0,20.70166,5.62038,37.22994,16.86567,49.58481,11.23623,12.35488,26.32205,18.53231,45.24385,18.53231,18.69988,0,33.66794-6.22952,44.90871-18.69762Z" style="fill: #1a1a1a;"/>
      <path d="m1893.99031,735.9731h-57.09602l-95.49667-144.58104v144.58104h-57.10054v-234.40299h57.10054l95.49667,145.24906v-145.24906h57.09602v234.40299Z" style="fill: #1a1a1a;"/>
      <path d="m2104.01868,501.57011v45.74429h-62.10952v188.65869h-57.09602v-188.65869h-62.10952v-45.74429h181.31506Z" style="fill: #1a1a1a;"/>
    </g>
  </g>
</svg>