<svg id="google_search_console_logo" xmlns="http://www.w3.org/2000/svg" xmlns:xlink="http://www.w3.org/1999/xlink" width="676.36" height="311.473" viewBox="0 0 676.36 311.473">
  <defs>
    <clipPath id="clip-path">
      <rect id="Rectangle_908" data-name="Rectangle 908" width="676.36" height="311.472"/>
    </clipPath>
  </defs>
  <rect id="Artboard1" width="676.36" height="311.472" fill="none"/>
  <g id="Group_1737" data-name="Group 1737" clip-path="url(#clip-path)">
    <g id="Artboard" transform="translate(-0.949)">
      <g id="XMLID_41_" transform="translate(0 230.525)">
        <path id="Shape" d="M25.965,188.065A28.259,28.259,0,0,1,9.87,182.7,25.2,25.2,0,0,1-.449,167.594l8.915-3.633a20.093,20.093,0,0,0,6.521,10.484,16.241,16.241,0,0,0,11.063,4.293,17.547,17.547,0,0,0,10.813-3.3,10.638,10.638,0,0,0,4.458-9c0-4.21-1.486-7.512-4.458-9.742-2.972-2.31-7.759-4.458-14.2-6.356-6.685-2.145-11.8-4.87-15.189-8.171a17.108,17.108,0,0,1-5.2-12.878,18.873,18.873,0,0,1,6.438-14.2c4.293-4.045,9.907-6.028,16.839-6.028,6.44,0,11.64,1.57,15.6,4.789,4.043,3.219,6.6,6.685,7.842,10.484l-8.915,3.714a13.553,13.553,0,0,0-4.7-6.685c-2.477-2.065-5.7-3.054-9.659-3.054a15.157,15.157,0,0,0-9.575,3.137,9.544,9.544,0,0,0-3.963,7.759,8.8,8.8,0,0,0,3.633,7.1,34.139,34.139,0,0,0,10.731,5.2c3.714,1.239,6.85,2.395,9.327,3.468a48.656,48.656,0,0,1,7.594,4.458,17.871,17.871,0,0,1,5.779,6.933,22.433,22.433,0,0,1,1.98,9.659,20.308,20.308,0,0,1-2.31,9.822,18.05,18.05,0,0,1-6.026,6.852,31.764,31.764,0,0,1-8.091,3.879,25.134,25.134,0,0,1-8.833,1.486Z" transform="translate(0.449 -109.066)" fill="#616161"/>
        <path id="Shape1" d="M52.954,175.539c-7.844,0-14.2-2.64-19.069-7.842s-7.347-11.8-7.347-19.729a28.91,28.91,0,0,1,7.1-19.481,23.14,23.14,0,0,1,18.243-8.173c7.677,0,13.785,2.477,18.408,7.512s6.935,11.722,6.935,20.06L77.14,149.7H36.28a17.816,17.816,0,0,0,5.2,12.382,15.723,15.723,0,0,0,11.228,4.54c6.933,0,11.72-2.972,14.2-8.915l8.668,3.633a22.729,22.729,0,0,1-8.338,10.071c-3.879,2.807-8.583,4.126-14.28,4.126ZM66.9,141.778a13.881,13.881,0,0,0-4.045-8.421c-2.475-2.642-6.191-4.046-11.143-4.046a13.934,13.934,0,0,0-9.327,3.386,17.208,17.208,0,0,0-5.449,9.08H66.9Z" transform="translate(30.502 -96.54)" fill="#616161"/>
        <path id="Shape2" d="M71.59,175.539a20.184,20.184,0,0,1-13.785-4.787,16.9,16.9,0,0,1,.991-25.837c4.375-3.219,9.74-4.787,16.18-4.787,5.7,0,10.4,1.072,14.032,3.137v-1.486a11.785,11.785,0,0,0-3.879-9.163,13.943,13.943,0,0,0-9.577-3.468,15.2,15.2,0,0,0-7.677,1.983,9.954,9.954,0,0,0-4.7,5.529l-8.915-3.8c1.156-3.137,3.549-5.943,7.1-8.586s8.171-3.963,13.95-3.963c6.6,0,12.134,1.9,16.51,5.779s6.521,9.33,6.521,16.345v31.451H89.009v-7.18H88.6C84.716,172.652,79.02,175.539,71.59,175.539Zm1.57-8.831a15.651,15.651,0,0,0,10.9-4.458A13.857,13.857,0,0,0,89.009,151.6c-2.724-2.228-6.85-3.384-12.382-3.384-4.7,0-8.256.991-10.648,3.054a9.31,9.31,0,0,0-3.633,7.182,6.834,6.834,0,0,0,3.3,6.026A13.186,13.186,0,0,0,73.161,166.708Z" transform="translate(59.165 -96.54)" fill="#616161"/>
        <path id="Shape3" d="M88.183,173.583h-9.74V121.827H87.77v8.419h.412a12.954,12.954,0,0,1,6.108-6.933,17.405,17.405,0,0,1,8.915-2.724,18.784,18.784,0,0,1,7.265,1.239l-3.714,9.08a14.437,14.437,0,0,0-5.2-.744,12.582,12.582,0,0,0-9.327,4.21,14.959,14.959,0,0,0-4.045,10.9Z" transform="translate(88.305 -96.235)" fill="#616161"/>
        <path id="Shape4" d="M119.79,175.5a25.51,25.51,0,0,1-19.152-7.842c-5.035-5.282-7.512-11.8-7.512-19.729s2.477-14.447,7.512-19.729,11.392-7.844,19.152-7.844q8.668,0,14.364,4.21a24.505,24.505,0,0,1,8.338,10.648l-8.915,3.716c-2.642-6.521-7.512-9.742-14.447-9.742a15.122,15.122,0,0,0-11.392,5.284,20.755,20.755,0,0,0,0,26.911,15.122,15.122,0,0,0,11.392,5.284c7.265,0,12.217-3.221,15.024-9.742l8.668,3.714a25.2,25.2,0,0,1-8.5,10.651A24.373,24.373,0,0,1,119.79,175.5Z" transform="translate(104.658 -96.497)" fill="#616161"/>
        <path id="Shape5" d="M129.152,109.887v23.856l-.412,7.18h.412a17.038,17.038,0,0,1,6.688-6.273,19.312,19.312,0,0,1,9.74-2.557c6.44,0,11.31,1.98,14.694,5.944s5.035,9.245,5.035,15.848V185.5h-9.74V155.288c0-9.575-4.293-14.364-12.8-14.364a11.894,11.894,0,0,0-9.822,4.789,17.358,17.358,0,0,0-3.8,11.143V185.5h-9.74V109.887h9.74Z" transform="translate(133.929 -108.152)" fill="#616161"/>
      </g>
      <g id="XMLID_39_" transform="translate(318.223 230.442)">
        <path id="Shape6" d="M189.4,188.108c-11.145,0-20.473-3.8-27.984-11.308s-11.31-16.922-11.31-28.232,3.8-20.637,11.31-28.232c7.512-7.512,16.839-11.31,27.984-11.31,11.39,0,20.635,4.128,27.817,12.384l-6.768,6.521c-5.119-6.438-12.134-9.575-21.05-9.575a28.838,28.838,0,0,0-20.885,8.336c-5.7,5.531-8.5,12.878-8.5,21.876s2.807,16.345,8.5,21.876a28.838,28.838,0,0,0,20.885,8.336c9.08,0,16.839-3.631,23.277-10.978l6.77,6.768a37.976,37.976,0,0,1-12.961,9.907,39.685,39.685,0,0,1-17.087,3.631Z" transform="translate(-150.109 -109.027)" fill="#616161"/>
        <path id="Shape7" d="M192.185,128.235c5.037-5.284,11.392-7.842,19.152-7.842a25.507,25.507,0,0,1,19.152,7.842c5.035,5.282,7.512,11.8,7.512,19.729s-2.477,14.447-7.512,19.729-11.392,7.844-19.152,7.844a25.512,25.512,0,0,1-19.152-7.844c-5.035-5.282-7.512-11.8-7.512-19.729S187.15,133.434,192.185,128.235Zm7.182,33.266a16.361,16.361,0,0,0,23.774,0c3.384-3.384,5.035-7.924,5.035-13.538s-1.651-10.154-5.035-13.538a16.365,16.365,0,0,0-23.774,0c-3.384,3.384-5.035,7.924-5.035,13.538C194.415,153.577,196.065,158.035,199.367,161.5Z" transform="translate(-111.618 -96.37)" fill="#616161"/>
        <path id="Shape8" d="M222.435,122.044v7.18h.412a17.031,17.031,0,0,1,6.685-6.273,19.325,19.325,0,0,1,9.742-2.557c6.438,0,11.31,1.98,14.694,5.944S259,135.582,259,142.184V173.8h-9.74V143.588c0-9.575-4.293-14.364-12.8-14.364a11.891,11.891,0,0,0-9.822,4.789,17.358,17.358,0,0,0-3.8,11.143V173.8h-9.742V122.044h9.33Z" transform="translate(-79.955 -96.37)" fill="#616161"/>
        <path id="Shape9" d="M260.09,175.5c-5.779,0-10.566-1.4-14.28-4.208a24.534,24.534,0,0,1-8.256-10.566l8.668-3.633c2.724,6.521,7.429,9.742,14.032,9.742a12.745,12.745,0,0,0,7.429-1.983,6.242,6.242,0,0,0,2.889-5.282c0-3.386-2.393-5.7-7.1-6.852l-10.486-2.56a25.436,25.436,0,0,1-9.41-4.787,11.6,11.6,0,0,1-4.458-9.575c0-4.54,2.065-8.256,6.108-11.145a25.941,25.941,0,0,1,26.663-1.154,16.927,16.927,0,0,1,7.677,8.915l-8.419,3.466c-1.9-4.54-5.861-6.852-11.8-6.852a13.368,13.368,0,0,0-7.265,1.818,5.5,5.5,0,0,0-2.972,4.87c0,2.972,2.31,4.952,6.85,6.026l10.236,2.393c4.872,1.156,8.421,3.054,10.815,5.779a14.072,14.072,0,0,1,3.466,9.33,14.525,14.525,0,0,1-5.7,11.638c-3.8,3.137-8.75,4.622-14.694,4.622Z" transform="translate(-52.728 -96.414)" fill="#616161"/>
        <path id="Shape10" d="M267.093,128.235c5.037-5.284,11.392-7.842,19.152-7.842a25.507,25.507,0,0,1,19.152,7.842c5.035,5.282,7.512,11.8,7.512,19.729s-2.477,14.447-7.512,19.729-11.393,7.844-19.152,7.844a25.511,25.511,0,0,1-19.152-7.844c-5.035-5.282-7.512-11.8-7.512-19.729S262.058,133.434,267.093,128.235Zm7.265,33.266a16.361,16.361,0,0,0,23.774,0c3.384-3.384,5.037-7.924,5.037-13.538s-1.653-10.154-5.037-13.538a16.365,16.365,0,0,0-23.774,0c-3.384,3.384-5.035,7.924-5.035,13.538S270.974,158.035,274.357,161.5Z" transform="translate(-28.198 -96.37)" fill="#616161"/>
        <path id="Shape11" d="M297.832,185.5h-9.74V109.887h9.74Z" transform="translate(3.553 -108.069)" fill="#616161"/>
        <path id="Shape12" d="M322.436,175.539c-7.844,0-14.2-2.64-19.069-7.842s-7.347-11.8-7.347-19.729a28.91,28.91,0,0,1,7.1-19.481,23.14,23.14,0,0,1,18.243-8.173c7.677,0,13.785,2.477,18.408,7.512s6.935,11.722,6.935,20.06l-.082,1.816H305.762a17.816,17.816,0,0,0,5.2,12.382,15.723,15.723,0,0,0,11.228,4.54c6.933,0,11.72-2.972,14.2-8.915l8.668,3.633a22.729,22.729,0,0,1-8.338,10.071c-3.879,2.807-8.668,4.126-14.28,4.126Zm13.95-33.761a13.881,13.881,0,0,0-4.045-8.421c-2.475-2.642-6.191-4.046-11.143-4.046a13.934,13.934,0,0,0-9.327,3.386,17.208,17.208,0,0,0-5.449,9.08Z" transform="translate(12.381 -96.457)" fill="#616161"/>
      </g>
      <g id="XMLID_37_">
        <path id="Shape13" d="M-.449,85.724C-.449,38.536,39.228,0,86.582,0c26.127,0,44.741,10.287,58.784,23.677L128.873,40.167C118.912,30.7,105.2,23.514,86.582,23.514c-34.452,0-61.395,27.758-61.395,62.21s26.942,62.212,61.395,62.212c22.371,0,35.107-8.981,43.27-17.146,6.7-6.694,11.1-16.328,12.737-29.39H86.582V78.05H165.45a78.052,78.052,0,0,1,1.306,14.7c0,17.636-4.737,39.352-20.249,54.7-15.022,15.677-34.289,24-59.763,24C39.228,171.286-.449,132.915-.449,85.724Z" transform="translate(0.449)" fill="#4285f4"/>
        <path id="Shape14" d="M137.877,28.893c-30.536,0-55.356,23.186-55.356,55.191,0,31.84,24.82,55.191,55.356,55.191s55.354-23.351,55.354-55.191c0-32-24.82-55.191-55.354-55.191Zm0,88.5c-16.655,0-31.189-13.717-31.189-33.473,0-19.921,14.368-33.476,31.189-33.476,16.653,0,31.187,13.555,31.187,33.476C169.063,103.677,154.53,117.395,137.877,117.395Z" transform="translate(92.847 32.176)" fill="#db4437"/>
        <path id="Shape15" d="M195.043,28.893c-30.533,0-55.354,23.186-55.354,55.191,0,31.84,24.82,55.191,55.354,55.191S250.4,115.924,250.4,84.084c0-32-24.82-55.191-55.356-55.191Zm0,88.5c-16.653,0-31.187-13.717-31.187-33.473,0-19.921,14.368-33.476,31.187-33.476S226.231,64,226.231,83.921C226.231,103.677,211.7,117.395,195.043,117.395Z" transform="translate(156.51 32.176)" fill="#f4b400"/>
        <path id="Shape16" d="M279.644,32.244v8.981h-.816c-5.39-6.531-15.84-12.409-29.064-12.409-27.6,0-52.906,24.165-52.906,55.354,0,30.861,25.311,55.026,52.906,55.026,13.225,0,23.675-5.878,29.064-12.572h.816v8c0,21.064-11.268,32.332-29.392,32.332-14.859,0-24-10.615-27.758-19.6l-21.064,8.818c6.043,14.7,22.208,32.658,48.988,32.658,28.411,0,52.414-16.655,52.414-57.478V32.244H279.644ZM251.885,117.48c-16.655,0-30.7-14.043-30.7-33.311,0-19.431,14.043-33.638,30.7-33.638,16.49,0,29.392,14.208,29.392,33.638C281.44,103.6,268.376,117.48,251.885,117.48Z" transform="translate(220.174 32.09)" fill="#4285f4"/>
        <rect id="Rectangle-path" width="24.167" height="162.143" transform="translate(539.659 5.878)" fill="#0f9d58"/>
        <path id="Shape17" d="M326.572,117.395c-12.409,0-21.064-5.715-26.78-16.655L373.6,70.2l-2.45-6.2c-4.572-12.411-18.615-35.107-47.189-35.107-28.411,0-52.088,22.371-52.088,55.191,0,30.861,23.349,55.191,54.7,55.191,25.309,0,39.842-15.514,46.045-24.493L353.84,102.208C347.471,111.352,338.981,117.395,326.572,117.395Zm-1.8-67.275c9.634,0,17.8,4.735,20.411,11.756L295.873,82.287c-.653-21.227,16.493-32.167,28.9-32.167Z" transform="translate(303.712 32.176)" fill="#db4437"/>
      </g>
    </g>
  </g>
</svg>
