<svg xmlns="http://www.w3.org/2000/svg" width="143.153" height="41.126" viewBox="0 0 143.153 41.126">
  <g id="Group_1672" data-name="Group 1672" transform="translate(15995.999 -5302)">
    <path id="Path_562" data-name="Path 562" d="M86.572,21.334A2.345,2.345,0,0,0,84.4,19.967v0H76.1l-.379.575c-.189.285-2.059,3.081-4.869,7.01l-.072.1a144.267,144.267,0,0,1-9.9,12.4c-9.109,10.144-13,12.087-14.753,12.916-.082.039-.157.074-.227.109A14.384,14.384,0,0,1,39.489,54.5,15.028,15.028,0,1,1,51.573,30.541l3.337-4.672A20.567,20.567,0,1,0,39.468,60.047c12.169,0,21.732-8.43,27.87-14.767,4.82-4.981,18.412-20.647,18.548-20.8l-.009-.009a2.974,2.974,0,0,0,.7-3.131" transform="translate(-16014.922 5283.079)" fill="#ec6500"/>
    <path id="Path_563" data-name="Path 563" d="M53.176,42.038c-2.187,3.061-5.22,6.3-9.306,5.909a7.772,7.772,0,0,1-6.957-7.732,7.5,7.5,0,0,1,2.254-5.458,7.759,7.759,0,0,1,12.582,2.25,6.968,6.968,0,0,1,.324.833l3.621-5.062-.176-.3a13.316,13.316,0,1,0-10.84,21.051,12.451,12.451,0,0,0,5.663-1.26l.241-.114c1.517-.717,5.332-2.626,14.211-12.513a142.793,142.793,0,0,0,9.782-12.25l.072-.1c2.3-3.22,3.968-5.67,4.586-6.589l-10.757,0-.022,0c-.134.187-13.27,18.607-14.33,20.027Z" transform="translate(-16020.111 5282.335)" fill="#ec6500"/>
    <path id="Path_564" data-name="Path 564" d="M145.011,32.733H153.8v2.3h-5.915v1.931h5.4v2.223h-5.4v2.1h6.069V43.76h-8.942Z" transform="translate(-16067.523 5277.316)" fill="#384044"/>
    <path id="Path_565" data-name="Path 565" d="M164.594,37.969,161,32.734h3.383l1.853,3.428,1.961-3.428h3.274L167.9,37.969l3.892,5.791H168.3l-2.069-3.675-2.255,3.675h-3.3Z" transform="translate(-16074.058 5277.316)" fill="#384044"/>
    <path id="Path_566" data-name="Path 566" d="M180.387,32.734h5.235c2.054,0,3.985.942,3.985,3.552,0,2.733-1.56,3.8-3.985,3.8H183.26V43.76h-2.873Zm2.873,5.126h1.93c.9,0,1.545-.37,1.545-1.374a1.358,1.358,0,0,0-1.545-1.452h-1.93Z" transform="translate(-16082.281 5277.316)" fill="#384044"/>
    <path id="Path_567" data-name="Path 567" d="M197.292,32.734h5.622c1.946,0,3.861.88,3.861,3.1a2.836,2.836,0,0,1-1.73,2.765v.031c1.173.277,1.513,1.59,1.606,2.64.03.463.077,2.085.463,2.486h-2.841a5.334,5.334,0,0,1-.325-1.76c-.076-1.112-.261-2.255-1.605-2.255h-2.178V43.76h-2.873Zm2.873,4.787h2.41a1.181,1.181,0,0,0,1.327-1.3c0-.819-.648-1.19-1.451-1.19h-2.286Z" transform="translate(-16089.334 5277.316)" fill="#384044"/>
    <path id="Path_568" data-name="Path 568" d="M215.206,32.733h8.787v2.3h-5.915v1.931h5.4v2.223h-5.4v2.1h6.069V43.76h-8.942Z" transform="translate(-16096.808 5277.316)" fill="#384044"/>
    <path id="Path_569" data-name="Path 569" d="M234.084,39.888c.062,1.3.865,1.714,2.085,1.714.864,0,1.761-.309,1.761-1.127,0-.974-1.575-1.159-3.166-1.606-1.575-.449-3.228-1.159-3.228-3.182,0-2.409,2.426-3.351,4.494-3.351,2.193,0,4.4,1.064,4.417,3.551h-2.872c.047-1-.9-1.328-1.776-1.328-.618,0-1.39.217-1.39.942,0,.85,1.591,1,3.2,1.452,1.591.448,3.2,1.189,3.2,3.181,0,2.795-2.378,3.691-4.8,3.691-2.533,0-4.772-1.112-4.788-3.938Z" transform="translate(-16103.485 5277.482)" fill="#384044"/>
    <path id="Path_570" data-name="Path 570" d="M250.964,39.888c.062,1.3.865,1.714,2.084,1.714.865,0,1.761-.309,1.761-1.127,0-.974-1.574-1.159-3.165-1.606-1.576-.449-3.228-1.159-3.228-3.182,0-2.409,2.424-3.351,4.494-3.351,2.193,0,4.4,1.064,4.417,3.551h-2.873c.046-1-.9-1.328-1.776-1.328-.618,0-1.391.217-1.391.942,0,.85,1.591,1,3.2,1.452,1.591.448,3.2,1.189,3.2,3.181,0,2.795-2.378,3.691-4.8,3.691-2.532,0-4.772-1.112-4.787-3.938Z" transform="translate(-16110.527 5277.482)" fill="#384044"/>
    <path id="Path_571" data-name="Path 571" d="M149.732,55.74c3.475,0,5.435,2.548,5.435,5.744s-1.961,5.745-5.435,5.745-5.436-2.549-5.436-5.745,1.961-5.744,5.436-5.744m0,9.018c1.853,0,2.564-1.637,2.564-3.274s-.711-3.273-2.564-3.273-2.563,1.637-2.563,3.273.71,3.274,2.563,3.274" transform="translate(-16067.227 5267.719)" fill="#384044"/>
    <path id="Path_572" data-name="Path 572" d="M164.2,56.137h2.95l3.83,6.795h.031V56.137h2.7V67.163h-2.95l-3.83-6.871H166.9v6.871h-2.7Z" transform="translate(-16075.528 5267.553)" fill="#384044"/>
    <path id="Path_573" data-name="Path 573" d="M182.556,56.137h8.787v2.3h-5.915v1.931h5.4v2.223h-5.4v2.1H191.5v2.471h-8.942Z" transform="translate(-16083.188 5267.553)" fill="#384044"/>
  </g>
</svg>
