<svg xmlns="http://www.w3.org/2000/svg" width="150" height="32" viewBox="0 0 150 32" fill="none"><path d="M11.2283 22.1559C10.2504 21.5978 9.06232 21.0971 6.86099 20.4045L4.38091 19.5552C3.64659 19.2897 2.9311 18.975 2.23932 18.6133C1.99375 18.4898 1.77029 18.364 1.56233 18.2383L0.980469 23.8412C1.56233 26.9295 4.57782 29.1353 7.17515 29.1353H7.81233C9.43179 29.0912 10.6884 28.7339 11.5734 28.0523C12.0254 27.7162 12.3896 27.2766 12.6353 26.7705C12.881 26.2645 13.0008 25.707 12.9849 25.1449C12.9604 24.5413 12.7873 23.953 12.4809 23.4317C12.1746 22.9105 11.7444 22.4724 11.2283 22.1559Z" fill="#6EB400"></path><path d="M20.3905 26.5308L18.791 11.0896C18.7302 10.5084 18.4559 9.97024 18.0208 9.5788C17.5858 9.18737 17.0208 8.9704 16.4348 8.96973H6.85733C5.08742 8.96973 4.6007 8.98737 3.41707 9.90061C2.66265 10.483 2.19141 11.7227 2.19141 12.6315C2.19179 13.1514 2.30305 13.6654 2.51779 14.1393C2.73253 14.6132 3.04585 15.036 3.43699 15.38C4.16929 16.0749 5.64937 16.5602 7.60512 17.2572L9.11619 17.7911L10.521 18.2874C11.4074 18.6034 12.2708 18.98 13.1051 19.4146C13.5165 19.6509 13.9008 19.9312 14.2512 20.2506C14.547 20.5431 14.8248 20.8533 15.083 21.1793C15.3473 21.5193 15.5702 21.8896 15.7467 22.2822C15.9445 22.6875 16.0981 23.1127 16.2047 23.5506C16.3219 24.0506 16.3856 24.5615 16.395 25.0749C16.4202 26.5335 15.9665 27.9604 15.1029 29.1381H18.0277C18.3601 29.139 18.689 29.0701 18.9928 28.936C19.2968 28.8018 19.569 28.6054 19.7919 28.3595C20.0147 28.1136 20.1832 27.8236 20.2864 27.5086C20.3895 27.1935 20.425 26.8603 20.3905 26.5308Z" fill="#AAE600"></path><path d="M6.17449 7.19866C6.30178 7.19848 6.42677 7.16471 6.53673 7.10078C6.64669 7.03685 6.73773 6.94506 6.8006 6.8347C7.18638 6.16419 7.74282 5.60709 8.41369 5.21966C9.08457 4.83224 9.84611 4.62822 10.6214 4.62822C11.3967 4.62822 12.1582 4.83224 12.829 5.21966C13.5 5.60709 14.0564 6.16419 14.4422 6.8347C14.5056 6.94508 14.5971 7.03684 14.7074 7.10074C14.8176 7.16464 14.9429 7.19841 15.0706 7.19866H15.4444C15.5683 7.19888 15.6902 7.16724 15.7983 7.10681C15.9065 7.0464 15.9971 6.95921 16.0615 6.85369C16.1261 6.74816 16.1621 6.62786 16.1664 6.50437C16.1707 6.38088 16.1431 6.25837 16.086 6.14866C15.5615 5.15712 14.7754 4.32715 13.8127 3.74819C12.8498 3.16924 11.7468 2.86328 10.6225 2.86328C9.49818 2.86328 8.39516 3.16924 7.43238 3.74819C6.46961 4.32715 5.68357 5.15712 5.15901 6.14866C5.10199 6.25837 5.07428 6.38088 5.07856 6.50437C5.08283 6.62786 5.11896 6.74816 5.18343 6.85369C5.24791 6.95921 5.33857 7.0464 5.44668 7.10681C5.55478 7.16724 5.67667 7.19888 5.80061 7.19866H6.17449Z" fill="#6EB400"></path><path d="M29.3159 16.3817C29.3159 16.7126 29.5372 16.9811 29.9797 17.1869C30.4946 17.42 31.031 17.6026 31.5814 17.7317C32.2228 17.892 32.8536 18.091 33.4708 18.3273C34.1075 18.5711 34.6631 18.9874 35.0747 19.5295C35.5309 20.1347 35.7652 20.8774 35.7385 21.6339C35.7385 22.9061 35.2621 23.8855 34.3093 24.5722C33.3565 25.259 32.1677 25.6017 30.7429 25.6001C28.4539 25.6001 26.8181 24.8082 25.8358 23.2244C25.7903 23.1526 25.7598 23.0722 25.7463 22.9882C25.7327 22.9043 25.7365 22.8185 25.7571 22.736C25.7778 22.6536 25.8151 22.5762 25.8666 22.5085C25.9181 22.4407 25.983 22.3842 26.0571 22.342L27.6943 21.4244C27.8367 21.3419 28.0055 21.3172 28.1657 21.3554C28.3259 21.3936 28.4653 21.4918 28.5549 21.6295C28.9885 22.3398 29.7164 22.6943 30.7385 22.6928C31.8816 22.6928 32.4532 22.3376 32.4532 21.6273C32.4532 21.298 32.2319 21.0295 31.7894 20.8222C31.2723 20.5899 30.7355 20.4038 30.1854 20.2663C29.5441 20.0964 28.9133 19.8894 28.2961 19.6464C27.6684 19.3995 27.1164 18.9934 26.6943 18.4685C26.2406 17.8952 26.0055 17.18 26.0305 16.4501C26.0305 15.228 26.4818 14.2656 27.3845 13.5626C28.2871 12.8597 29.4104 12.5112 30.754 12.517C31.7163 12.5053 32.6654 12.7399 33.5107 13.1986C34.1222 13.5298 34.6563 13.987 35.0771 14.5398C35.1312 14.6119 35.1694 14.6948 35.1887 14.7828C35.208 14.8708 35.2081 14.9619 35.189 15.05C35.1699 15.138 35.132 15.221 35.0779 15.2932C35.0239 15.3655 34.955 15.4253 34.8757 15.4685L33.2672 16.3508C33.132 16.4225 32.9753 16.443 32.8262 16.4085C32.6769 16.3741 32.5453 16.287 32.4554 16.1633C32.2573 15.904 31.9989 15.6967 31.7025 15.559C31.406 15.4215 31.0805 15.3579 30.754 15.3736C30.39 15.3604 30.0302 15.4556 29.7208 15.6472C29.5955 15.7245 29.4924 15.8327 29.4214 15.9614C29.3505 16.0901 29.3142 16.2349 29.3159 16.3817Z" fill="white"></path><path d="M44.4132 12.517C45.0399 12.4971 45.6639 12.6078 46.2453 12.8422C46.8266 13.0765 47.3525 13.4294 47.7893 13.8781C48.6742 14.7869 49.1167 16.0427 49.1167 17.6457V24.6273C49.1167 24.7095 49.1005 24.7908 49.0688 24.8667C49.0373 24.9425 48.9909 25.0115 48.9326 25.0695C48.8741 25.1275 48.8049 25.1734 48.7287 25.2047C48.6524 25.2359 48.5708 25.2518 48.4883 25.2516H46.537C46.371 25.2516 46.2117 25.1857 46.0943 25.0687C45.9769 24.9517 45.911 24.7929 45.911 24.6273V18.0428C45.911 17.2156 45.6897 16.5847 45.2472 16.1457C45.0093 15.921 44.7283 15.7467 44.4211 15.6329C44.114 15.5192 43.7869 15.4686 43.4596 15.4839C43.0924 15.4667 42.7257 15.5261 42.3828 15.6582C42.04 15.7904 41.7285 15.9925 41.4684 16.2516C40.9625 16.7678 40.7096 17.5383 40.7096 18.5634V24.6273C40.7096 24.7095 40.6934 24.7908 40.6617 24.8667C40.6301 24.9425 40.5838 25.0115 40.5254 25.0695C40.4671 25.1275 40.3978 25.1734 40.3216 25.2047C40.2454 25.2359 40.1637 25.2518 40.0813 25.2516H38.1299C37.9639 25.2516 37.8047 25.1857 37.6872 25.0687C37.5699 24.9517 37.5039 24.7929 37.5039 24.6273V9.60303C37.5039 9.43726 37.5698 9.27825 37.6871 9.16083C37.8045 9.0434 37.9637 8.97715 38.1299 8.97656H40.0813C40.2479 8.97656 40.4077 9.04256 40.5255 9.16005C40.6434 9.27753 40.7096 9.43689 40.7096 9.60303V14.2531C41.4884 13.0956 42.7229 12.517 44.4132 12.517Z" fill="white"></path><path d="M62.1184 23.7022C61.0383 24.7932 59.6118 25.4765 58.0824 25.6352C56.5532 25.794 55.016 25.4185 53.7337 24.5728C52.4513 23.7272 51.5031 22.4638 51.0511 20.9985C50.5991 19.5333 50.6713 17.9569 51.2555 16.5389C51.8397 15.1208 52.8995 13.949 54.2539 13.2235C55.6083 12.4981 57.1734 12.2639 58.6818 12.5611C60.1902 12.8583 61.5482 13.6685 62.5241 14.8532C63.4999 16.0378 64.0329 17.5236 64.0321 19.0566C64.046 19.9199 63.8835 20.7769 63.5545 21.5756C63.2255 22.3743 62.7368 23.0979 62.1184 23.7022ZM55.0388 21.5095C55.3502 21.8265 55.724 22.076 56.1367 22.2422C56.5494 22.4085 56.9921 22.4879 57.437 22.4757C57.8838 22.4872 58.3282 22.4073 58.7429 22.2412C59.1577 22.075 59.5339 21.8261 59.8485 21.5095C60.4711 20.8436 60.8172 19.9669 60.8172 19.0566C60.8172 18.1462 60.4711 17.2696 59.8485 16.6036C59.5339 16.2871 59.1577 16.0382 58.7429 15.8719C58.3282 15.7058 57.8838 15.626 57.437 15.6375C56.9921 15.6252 56.5494 15.7047 56.1367 15.871C55.724 16.0372 55.3502 16.2867 55.0388 16.6036C54.4224 17.2728 54.0805 18.1481 54.0805 19.0566C54.0805 19.9651 54.4224 20.8405 55.0388 21.5095Z" fill="white"></path><path d="M73.037 12.5169C73.846 12.5086 74.6473 12.6735 75.3869 13.0004C76.1267 13.3272 76.7873 13.8086 77.3246 14.4118C78.4689 15.6902 79.1012 17.3438 79.1012 19.0573C79.1012 20.7709 78.4689 22.4244 77.3246 23.7029C76.7874 24.3063 76.1268 24.7879 75.3871 25.1152C74.6475 25.4425 73.8461 25.6077 73.037 25.6C71.298 25.6 69.9558 24.997 69.0104 23.7912V28.5162C69.0104 28.6817 68.9444 28.8404 68.8271 28.9576C68.7096 29.0746 68.5503 29.1404 68.3842 29.1404H66.433C66.2667 29.1404 66.1072 29.0747 65.9894 28.9577C65.8717 28.8406 65.8052 28.6819 65.8047 28.5162V13.4875C65.8052 13.3217 65.8717 13.1629 65.9894 13.0459C66.1072 12.9288 66.2667 12.8632 66.433 12.8632H68.3842C68.5503 12.8632 68.7096 12.929 68.8271 13.046C68.9444 13.1631 69.0104 13.3218 69.0104 13.4875V14.3257C69.9558 13.1198 71.298 12.5169 73.037 12.5169ZM69.9816 21.572C70.3023 21.895 70.6862 22.1486 71.1095 22.3171C71.5327 22.4856 71.9862 22.5654 72.4418 22.5515C72.899 22.565 73.3541 22.4852 73.7791 22.3168C74.2041 22.1482 74.59 21.8949 74.9131 21.572C75.5445 20.8859 75.8949 19.9886 75.8949 19.0573C75.8949 18.126 75.5445 17.2287 74.9131 16.5426C74.5904 16.2189 74.2047 15.9647 73.7796 15.7955C73.3546 15.6263 72.8992 15.5457 72.4418 15.5588C71.9862 15.5448 71.5327 15.6247 71.1095 15.7931C70.6862 15.9616 70.3023 16.2153 69.9816 16.5382C69.3567 17.2276 69.0106 18.1237 69.0106 19.0529C69.0106 19.9822 69.3567 20.8783 69.9816 21.5676V21.572Z" fill="white"></path><path d="M84.0846 14.9943C84.3479 14.2426 84.8721 13.6095 85.5625 13.2097C86.0512 12.9278 86.5897 12.7427 87.1488 12.6648C87.2377 12.6528 87.3281 12.66 87.4141 12.6858C87.5 12.7116 87.5794 12.7554 87.6469 12.8143C87.7143 12.8733 87.7684 12.946 87.8054 13.0275C87.8423 13.109 87.8614 13.1975 87.8612 13.2869V15.5281C87.8612 15.6921 87.7964 15.8496 87.681 15.9664C87.5655 16.0832 87.4084 16.15 87.244 16.1523C86.5289 16.1627 85.8325 16.3804 85.2395 16.7788C84.4696 17.2906 84.0846 18.1413 84.0846 19.331V24.6251C84.0846 24.7073 84.0684 24.7886 84.0367 24.8645C84.0052 24.9404 83.9589 25.0093 83.9005 25.0673C83.8421 25.1253 83.7728 25.1712 83.6966 25.2024C83.6204 25.2337 83.5388 25.2496 83.4564 25.2494H81.505C81.3389 25.2494 81.1797 25.1836 81.0623 25.0665C80.9449 24.9494 80.8789 24.7907 80.8789 24.6251V13.4854C80.8789 13.3198 80.9449 13.1611 81.0623 13.0439C81.1797 12.9269 81.3389 12.8612 81.505 12.8612H83.4564C83.6226 12.8612 83.7821 12.9268 83.8999 13.0438C84.0177 13.1608 84.0841 13.3197 84.0846 13.4854V14.9943Z" fill="#6EB400"></path><path d="M92.1117 20.3717C92.5424 21.9247 93.7106 22.7004 95.6161 22.6989C96.6634 22.6989 97.4922 22.3989 98.1029 21.7989C98.1998 21.7061 98.3246 21.6476 98.4582 21.6325C98.5916 21.6174 98.7265 21.6464 98.8418 21.7151L100.36 22.5974C100.44 22.6437 100.51 22.7072 100.563 22.7834C100.616 22.8597 100.652 22.9469 100.667 23.0384C100.682 23.1301 100.677 23.2239 100.651 23.3133C100.626 23.4026 100.58 23.4851 100.519 23.5548C99.3153 24.9254 97.6648 25.6099 95.5675 25.6085C93.5115 25.6085 91.8625 24.9886 90.6206 23.7489C89.3787 22.5092 88.7578 20.9482 88.7578 19.0658C88.7578 17.1997 89.3706 15.6431 90.5963 14.396C91.8219 13.1489 93.3957 12.5254 95.3174 12.5254C97.1405 12.5254 98.6441 13.1526 99.8286 14.407C101.013 15.6614 101.603 17.2143 101.598 19.0658C101.598 19.3156 101.584 19.5654 101.556 19.8136C101.541 19.9681 101.468 20.1114 101.353 20.216C101.238 20.3205 101.088 20.3792 100.933 20.3805L92.1117 20.3717ZM92.0631 17.8923H98.3994C98.2748 17.1445 97.8709 16.4715 97.2689 16.0085C96.7025 15.5976 96.0178 15.3809 95.3174 15.3908C94.5505 15.3631 93.7967 15.5965 93.1803 16.0526C92.6028 16.5161 92.2073 17.1673 92.0631 17.8923Z" fill="#6EB400"></path><path d="M110.292 12.5167C110.917 12.498 111.539 12.6093 112.119 12.8437C112.698 13.0779 113.223 13.4301 113.659 13.8777C114.543 14.7865 114.987 16.0424 114.987 17.6453V24.6269C114.987 24.7091 114.97 24.7905 114.938 24.8664C114.906 24.9423 114.86 25.0112 114.803 25.0692C114.744 25.1271 114.675 25.1731 114.599 25.2043C114.522 25.2355 114.441 25.2515 114.358 25.2512H112.407C112.24 25.2512 112.082 25.1855 111.964 25.0683C111.847 24.9513 111.781 24.7925 111.781 24.6269V18.0424C111.781 17.2152 111.559 16.5843 111.117 16.1453C110.878 15.9208 110.598 15.7464 110.291 15.6327C109.984 15.519 109.656 15.4682 109.329 15.4836C108.962 15.4664 108.595 15.5257 108.252 15.6579C107.91 15.7901 107.598 15.9922 107.338 16.2512C106.841 16.763 106.592 17.5314 106.592 18.5564V24.6203C106.592 24.7025 106.576 24.7839 106.545 24.8598C106.513 24.9357 106.467 25.0046 106.408 25.0626C106.35 25.1205 106.281 25.1665 106.204 25.1977C106.128 25.2289 106.047 25.2449 105.964 25.2446H104.013C103.847 25.2446 103.687 25.1789 103.57 25.0617C103.453 24.9447 103.387 24.7859 103.387 24.6203V13.4806C103.387 13.3151 103.453 13.1563 103.57 13.0392C103.687 12.9222 103.847 12.8564 104.013 12.8564H105.964C106.13 12.8564 106.29 12.9221 106.408 13.0391C106.525 13.1561 106.592 13.3149 106.592 13.4806V14.2439C107.368 13.0924 108.601 12.5167 110.292 12.5167Z" fill="#6EB400"></path><path d="M124.312 15.9361H122.125V21.0891C122.109 21.2599 122.13 21.4321 122.186 21.5943C122.241 21.7567 122.33 21.9055 122.447 22.031C122.714 22.2494 123.048 22.3681 123.393 22.3663C123.654 22.3817 123.954 22.3861 124.293 22.3773C124.376 22.3759 124.459 22.391 124.536 22.4218C124.615 22.4527 124.685 22.4985 124.745 22.5569C124.804 22.6151 124.852 22.6847 124.884 22.7615C124.916 22.8382 124.932 22.9205 124.932 23.0038V24.6847C124.932 24.8418 124.873 24.9932 124.766 25.1086C124.659 25.2242 124.512 25.2957 124.355 25.3089C122.456 25.456 121.096 25.231 120.273 24.6339C119.37 23.9722 118.919 22.7905 118.919 21.0891V15.9361H117.39C117.224 15.9361 117.064 15.8701 116.946 15.7526C116.828 15.6352 116.762 15.4758 116.762 15.3097V13.4876C116.763 13.3218 116.829 13.163 116.947 13.046C117.065 12.929 117.224 12.8634 117.39 12.8634H118.926V9.60303C118.926 9.43726 118.992 9.27825 119.109 9.16083C119.227 9.0434 119.386 8.97715 119.552 8.97656H121.503C121.669 8.97831 121.826 9.04508 121.943 9.16237C122.059 9.27967 122.125 9.43802 122.125 9.60303V12.8656H124.306C124.389 12.8656 124.47 12.8817 124.546 12.9131C124.622 12.9444 124.691 12.9904 124.749 13.0484C124.808 13.1063 124.853 13.1752 124.885 13.2509C124.916 13.3267 124.932 13.4079 124.932 13.4898V15.3119C124.932 15.4761 124.866 15.6336 124.75 15.7503C124.635 15.8671 124.478 15.9338 124.312 15.9361Z" fill="#6EB400"></path><path d="M130.069 20.3717C130.501 21.9247 131.669 22.7004 133.573 22.6989C134.621 22.6989 135.449 22.3989 136.06 21.7989C136.157 21.7064 136.282 21.6481 136.415 21.633C136.549 21.6179 136.683 21.6467 136.799 21.7151L138.317 22.5974C138.397 22.6437 138.467 22.7072 138.52 22.7834C138.574 22.8597 138.609 22.9469 138.624 23.0384C138.639 23.1301 138.634 23.2239 138.608 23.3133C138.582 23.4026 138.537 23.4851 138.476 23.5548C137.276 24.9254 135.624 25.6099 133.524 25.6085C131.47 25.6085 129.821 24.9886 128.578 23.7489C127.335 22.5092 126.714 20.9482 126.715 19.0658C126.715 17.1997 127.328 15.6431 128.553 14.396C129.779 13.1489 131.353 12.5254 133.274 12.5254C135.097 12.5254 136.602 13.1526 137.785 14.407C138.97 15.6614 139.56 17.2143 139.555 19.0658C139.555 19.3156 139.541 19.5654 139.513 19.8136C139.498 19.9681 139.425 20.1114 139.31 20.216C139.195 20.3205 139.046 20.3792 138.889 20.3805L130.069 20.3717ZM130.02 17.8923H136.357C136.232 17.1442 135.828 16.4708 135.226 16.0085C134.659 15.5976 133.974 15.3809 133.274 15.3908C132.507 15.3631 131.754 15.5965 131.138 16.0526C130.56 16.5161 130.165 17.1673 130.02 17.8923Z" fill="#6EB400"></path><path d="M144.546 14.9942C144.81 14.2431 145.334 13.6103 146.023 13.2096C146.512 12.9278 147.051 12.7427 147.61 12.6648C147.698 12.6529 147.789 12.66 147.875 12.6858C147.961 12.7115 148.041 12.7554 148.109 12.8143C148.176 12.8732 148.23 12.9458 148.267 13.0273C148.305 13.1088 148.324 13.1973 148.325 13.2868V15.528C148.324 15.6923 148.259 15.8497 148.143 15.9665C148.027 16.0832 147.869 16.15 147.705 16.1523C146.99 16.1634 146.293 16.381 145.701 16.7787C144.931 17.2905 144.546 18.1413 144.546 19.3309V24.6251C144.546 24.7906 144.48 24.9494 144.362 25.0666C144.245 25.1836 144.085 25.2493 143.92 25.2493H141.966C141.8 25.2493 141.641 25.1836 141.523 25.0666C141.406 24.9494 141.34 24.7906 141.34 24.6251V13.4854C141.34 13.3198 141.406 13.1611 141.523 13.044C141.641 12.9269 141.8 12.8611 141.966 12.8611H143.92C144.085 12.8611 144.245 12.9269 144.362 13.044C144.48 13.1611 144.546 13.3198 144.546 13.4854V14.9942Z" fill="#6EB400"></path></svg>